<?xml version="1.0" encoding="UTF-8" standalone="no"?>
<!-- Created with Inkscape (http://www.inkscape.org/) -->

<svg
   xmlns:dc="http://purl.org/dc/elements/1.1/"
   xmlns:cc="http://creativecommons.org/ns#"
   xmlns:rdf="http://www.w3.org/1999/02/22-rdf-syntax-ns#"
   xmlns:svg="http://www.w3.org/2000/svg"
   xmlns="http://www.w3.org/2000/svg"
   xmlns:sodipodi="http://sodipodi.sourceforge.net/DTD/sodipodi-0.dtd"
   xmlns:inkscape="http://www.inkscape.org/namespaces/inkscape"
   version="1.1"
   id="svg3824"
   xml:space="preserve"
   width="816"
   height="1056"
   viewBox="0 0 816 1056"
   sodipodi:docname="facture.svg"
   inkscape:version="0.92.1 r15371"><metadata
     id="metadata3830"><rdf:RDF><cc:Work
         rdf:about=""><dc:format>image/svg+xml</dc:format><dc:type
           rdf:resource="http://purl.org/dc/dcmitype/StillImage" /><dc:title></dc:title></cc:Work></rdf:RDF></metadata><defs
     id="defs3828"><clipPath
       clipPathUnits="userSpaceOnUse"
       id="clipPath3840"><path
         d="M 0,0 H 612 V 792 H 0 Z"
         id="path3838"
         inkscape:connector-curvature="0"
         style="clip-rule:evenodd" /></clipPath><clipPath
       clipPathUnits="userSpaceOnUse"
       id="clipPath4012"><path
         d="M 56.6,320.4 H 541.2 V 735.2 H 56.6 Z"
         id="path4010"
         inkscape:connector-curvature="0"
         style="clip-rule:evenodd" /></clipPath></defs><sodipodi:namedview
     pagecolor="#ffffff"
     bordercolor="#666666"
     borderopacity="1"
     objecttolerance="10"
     gridtolerance="10"
     guidetolerance="10"
     inkscape:pageopacity="0"
     inkscape:pageshadow="2"
     inkscape:window-width="1355"
     inkscape:window-height="680"
     id="namedview3826"
     showgrid="false"
     inkscape:zoom="1.2642212"
     inkscape:cx="582.38806"
     inkscape:cy="690.86296"
     inkscape:window-x="0"
     inkscape:window-y="27"
     inkscape:window-maximized="1"
     inkscape:current-layer="g4008" /><g
     id="g3832"
     inkscape:groupmode="layer"
     inkscape:label="f17006"
     transform="matrix(1.3333333,0,0,-1.3333333,0,1056)"><g
       id="g3834"><g
         id="g3836"
         clip-path="url(#clipPath3840)"><path
           d="m 56.7,423.3 h 484.5 v 17 H 56.7 Z"
           style="fill:#dddddd;fill-opacity:1;fill-rule:evenodd;stroke:none"
           id="path3842"
           inkscape:connector-curvature="0" /><path
           d="m 56.7,321.1 h 484.5 v 17.4 H 56.7 Z"
           style="fill:#ffffff;fill-opacity:1;fill-rule:evenodd;stroke:none"
           id="path3844"
           inkscape:connector-curvature="0" /></g></g><path
       d="M 56.7,441.5 H 541.2 V 439 H 56.7 Z"
       style="fill:#000080;fill-opacity:1;fill-rule:evenodd;stroke:none"
       id="path3846"
       inkscape:connector-curvature="0" /><path
       d="M 56.7,423.3 H 541.2"
       style="fill:none;stroke:#000080;stroke-width:0.1;stroke-linecap:butt;stroke-linejoin:miter;stroke-miterlimit:10;stroke-dasharray:none;stroke-opacity:1"
       id="path3848"
       inkscape:connector-curvature="0" /><path
       d="M 56.7,338.4 H 376.5"
       style="fill:none;stroke:#000080;stroke-width:0.1;stroke-linecap:butt;stroke-linejoin:miter;stroke-miterlimit:10;stroke-dasharray:none;stroke-opacity:1"
       id="path3850"
       inkscape:connector-curvature="0" /><path
       d="M 376.5,338.8 H 541.2 V 338 H 376.5 Z"
       style="fill:#000080;fill-opacity:1;fill-rule:evenodd;stroke:none"
       id="path3852"
       inkscape:connector-curvature="0" /><path
       d="m 56.7,322.3 h 484.5 v -2.6 H 56.7 Z"
       style="fill:#000080;fill-opacity:1;fill-rule:evenodd;stroke:none"
       id="path3854"
       inkscape:connector-curvature="0" /><g
       id="g3856"><text
         transform="matrix(1,0,0,-1,214,717.1)"
         style="font-variant:normal;font-weight:bold;font-size:18px;font-family:'Liberation Sans';-inkscape-font-specification:LiberationSans-Bold;writing-mode:lr-tb;fill:#000000;fill-opacity:1;fill-rule:nonzero;stroke:none"
         id="text3860"><tspan
           x="0 10.98 20.988001 30.996 36.990002 47.970001 54.972 64.980003 69.966003 80.945999 90.954002 95.940002 107.928 117.936 124.938 134.946 139.93201 149.94 159.948"
           y="0"
           sodipodi:role="line"
           id="tspan3858">Facture de Services</tspan></text>
</g><g
       id="g3862"><text
         transform="matrix(1,0,0,-1,58.7,622.3)"
         style="font-variant:normal;font-weight:bold;font-size:12px;font-family:'Liberation Sans';-inkscape-font-specification:LiberationSans-Bold;writing-mode:lr-tb;fill:#000000;fill-opacity:1;fill-rule:nonzero;stroke:none"
         id="text3866"><tspan
           x="0 8.6879997 11.988 16.68 23.976 31.271999 37.956001"
           y="0"
           sodipodi:role="line"
           id="tspan3864">Dironec</tspan></text>
</g><g
       id="g3868"><text
         transform="matrix(1,0,0,-1,58.7,608)"
         style="font-variant:normal;font-weight:normal;font-size:9px;font-family:'Liberation Sans';-inkscape-font-specification:LiberationSans;writing-mode:lr-tb;fill:#000000;fill-opacity:1;fill-rule:nonzero;stroke:none"
         id="text3872"><tspan
           x="0 5.0040002 10.008 15.012 17.504999 20.502001 25.506001 30.51 33.002998 40.5 45.504002 48.500999 50.499001 54.999001 59.499001 64.502998 66.996002 69.488998"
           y="0"
           sodipodi:role="line"
           id="tspan3870">331 rue Morissette</tspan></text>
</g><g
       id="g3874"><text
         transform="matrix(1,0,0,-1,58.7,593.4)"
         style="font-variant:normal;font-weight:normal;font-size:9px;font-family:'Liberation Sans';-inkscape-font-specification:LiberationSans;writing-mode:lr-tb;fill:#000000;fill-opacity:1;fill-rule:nonzero;stroke:none"
         id="text3878"><tspan
           x="0 5.0040002 10.008 14.508 19.511999 21.51 24.003 27 28.997999 34.001999 36.494999 38.987999 45.980999 50.985001 55.988998 60.993 65.997002 70.497002 72.989998 75.483002 79.983002 84.987 90.288002 92.780998 97.785004 103.779"
           y="0"
           sodipodi:role="line"
           id="tspan3876">Lavaltrie, Québec, J5T 2P3</tspan></text>
</g><g
       id="g3880"><text
         transform="matrix(1,0,0,-1,58.7,577.8)"
         style="font-variant:normal;font-weight:normal;font-size:10px;font-family:'Liberation Sans';-inkscape-font-specification:LiberationSans;writing-mode:lr-tb;fill:#000000;fill-opacity:1;fill-rule:nonzero;stroke:none"
         id="text3884"><tspan
           x="0 5.5900002 11.18 16.77 20.07 25.66 31.25 36.84 40.139999 45.73 51.32 56.91"
           y="0"
           sodipodi:role="line"
           id="tspan3882">514-268-0793</tspan></text>
</g><g
       id="g3886"><text
         transform="matrix(1,0,0,-1,58.7,563.2)"
         style="font-variant:normal;font-weight:normal;font-size:10px;font-family:'Liberation Sans';-inkscape-font-specification:LiberationSans;writing-mode:lr-tb;fill:#000000;fill-opacity:1;fill-rule:nonzero;stroke:none"
         id="text3890"><tspan
           x="0 7.1999998 13.89 21.68 24.469999 27.26 32.849998 38.439999 44.029999 49.619999 55.209999 60.799999 66.389999 71.980003 77.57"
           y="0"
           sodipodi:role="line"
           id="tspan3888">NEQ: 2261966040</tspan></text>
</g><g
       id="g3892"><text
         transform="matrix(1,0,0,-1,58.7,534)"
         style="font-variant:normal;font-weight:bold;font-size:10px;font-family:'Liberation Sans';-inkscape-font-specification:LiberationSans-Bold;writing-mode:lr-tb;fill:#000000;fill-opacity:1;fill-rule:nonzero;stroke:none"
         id="text3896"><tspan
           x="0 6.0999999 12.2 18.299999 22.190001 28.290001 31.08 36.669998 39.459999"
           y="0"
           sodipodi:role="line"
           id="tspan3894">Fournis à</tspan></text>
</g><g
       id="g3898"><text
         transform="matrix(1,0,0,-1,58.7,517.5)"
         style="font-variant:normal;font-weight:bold;font-size:12px;font-family:'Liberation Sans';-inkscape-font-specification:LiberationSans-Bold;writing-mode:lr-tb;fill:#000000;fill-opacity:1;fill-rule:nonzero;stroke:none"
         id="nomClient"><tspan
           x="0 8.6879997 15.984 23.280001 29.964001 37.259998 40.560001 44.556 51.240002 55.236 58.535999 65.832001 73.127998 79.811996 82.907997 90.900002 98.003998 101.304 104.604 111.9 118.584"
           y="0"
           sodipodi:role="line"
           id="tspan3900">Consultations YL Inc.</tspan></text>
</g><g
       id="g3904"><text
         transform="matrix(1,0,0,-1,57.7,501.8)"
         style="font-variant:normal;font-weight:normal;font-size:10px;font-family:'Liberation Serif';-inkscape-font-specification:LiberationSerif;writing-mode:lr-tb;fill:#000000;fill-opacity:1;fill-rule:nonzero;stroke:none"
         id="addrClient"><tspan
           x="0 5 10 15 20 22.5 29.190001 34.189999 37.490002 41.889999 44.389999 50.490002 54.889999 59.889999 64.290001 67.080002 69.580002 72.080002 76.480003 81.480003 86.480003 89.269997 91.769997 94.269997 99.269997 104.27"
           y="0"
           sodipodi:role="line"
           id="tspan3906">1200 Curé Label, appt. 302</tspan></text>
</g><g
       id="g3910"><text
         transform="matrix(1,0,0,-1,57.7,487.2)"
         style="font-variant:normal;font-weight:normal;font-size:10px;font-family:'Liberation Serif';-inkscape-font-specification:LiberationSerif;writing-mode:lr-tb;fill:#000000;fill-opacity:1;fill-rule:nonzero;stroke:none"
         id="villeClient"><tspan
           x="0 6.6900001 9.4799995 13.88 16.67 21.67 26.67 29.459999 32.25 35.040001 39.439999 41.939999 44.439999 51.639999 58.330002 60.830002 63.330002 67.220001 72.220001 78.910004 81.410004 86.410004 93.610001"
           y="0"
           sodipodi:role="line"
           id="tspan3912">Blainville, QC, J7C 2N4</tspan></text>
</g><g
       id="g3916"><text
         transform="matrix(1,0,0,-1,57.7,472.6)"
         style="font-variant:normal;font-weight:normal;font-size:10px;font-family:'Liberation Serif';-inkscape-font-specification:LiberationSerif;writing-mode:lr-tb;fill:#000000;fill-opacity:1;fill-rule:nonzero;stroke:none"
         id="teleClient"><tspan
           x="0 5 10 15 18.299999 23.299999 28.299999 33.299999 36.599998 41.599998 46.599998 51.599998"
           y="0"
           sodipodi:role="line"
           id="tspan3918">514-865-8992</tspan></text>
</g><g
       id="g3922"><text
         transform="matrix(1,0,0,-1,58.7,427.7)"
         style="font-style:italic;font-variant:normal;font-weight:bold;font-size:12px;font-family:'Liberation Serif';-inkscape-font-specification:LiberationSerif-BoldItalic;writing-mode:lr-tb;fill:#000000;fill-opacity:1;fill-rule:nonzero;stroke:none"
         id="text3926"><tspan
           x="0 8.6879997 13.992 18.684 23.988001 28.68 31.98 37.98 41.279999 44.580002 50.580002"
           y="0"
           sodipodi:role="line"
           id="tspan3924">Description</tspan></text>
</g><g
       id="g3928"><text
         transform="matrix(1,0,0,-1,338.5,427.7)"
         style="font-style:italic;font-variant:normal;font-weight:bold;font-size:12px;font-family:'Liberation Serif';-inkscape-font-specification:LiberationSerif-BoldItalic;writing-mode:lr-tb;fill:#000000;fill-opacity:1;fill-rule:nonzero;stroke:none"
         id="text3932"><tspan
           x="0 9.3000002 14.604 21.288 25.98 31.284"
           y="0"
           sodipodi:role="line"
           id="tspan3930">Heures</tspan></text>
</g><g
       id="g3934"><text
         transform="matrix(1,0,0,-1,386,427.7)"
         style="font-style:italic;font-variant:normal;font-weight:bold;font-size:12px;font-family:'Liberation Serif';-inkscape-font-specification:LiberationSerif-BoldItalic;writing-mode:lr-tb;fill:#000000;fill-opacity:1;fill-rule:nonzero;stroke:none"
         id="text3938"><tspan
           x="0 6.204 12.204 18.888 24.888 27.888 34.571999 40.571999 45.264 51.264 54.563999 59.256001"
           y="0"
           sodipodi:role="line"
           id="tspan3936">Taux horaire</tspan></text>
</g><g
       id="g3940"><text
         transform="matrix(1,0,0,-1,514.5,427.7)"
         style="font-style:italic;font-variant:normal;font-weight:bold;font-size:12px;font-family:'Liberation Serif';-inkscape-font-specification:LiberationSerif-BoldItalic;writing-mode:lr-tb;fill:#000000;fill-opacity:1;fill-rule:nonzero;stroke:none"
         id="text3944"><tspan
           x="0 6.204 12.204 15.504 21.504"
           y="0"
           sodipodi:role="line"
           id="tspan3942">Total</tspan></text>
</g><g
       id="g3946"><text
         transform="matrix(1,0,0,-1,57.7,409.4)"
         style="font-variant:normal;font-weight:normal;font-size:10px;font-family:'Liberation Sans';-inkscape-font-specification:LiberationSans;writing-mode:lr-tb;fill:#000000;fill-opacity:1;fill-rule:nonzero;stroke:none"
         id="text3950"><tspan
           x="0 7.1999998 12.79 16.09 19.389999 24.98 29.98 32.77 34.970001 40.560001 46.150002 48.939999 54.529999 57.830002 63.419998 71.720001 80.019997 85.610001 88.400002 90.599998 95.599998 101.19 103.39 108.98 111.77 117.36 122.95 125.74 130.74001 132.94 135.73 141.32001 144.11 151.31 156.89999 162.49001 167.49001 170.28 173.58 179.17 184.17 186.96001 189.16 194.75 200.34 205.92999 211.52 214.82001 220.41 223.2 228.78999 233.78999 239.38 242.17 247.17 252.75999"
           y="0"
           sodipodi:role="line"
           id="tspan3948">Correction grammaticale du site Constructionnordtech.com</tspan></text>
</g><g
       id="g3952"><text
         transform="matrix(1,0,0,-1,368.5,410.7)"
         style="font-variant:normal;font-weight:normal;font-size:12px;font-family:'Liberation Serif';-inkscape-font-specification:LiberationSerif;writing-mode:lr-tb;fill:#000000;fill-opacity:1;fill-rule:nonzero;stroke:none"
         id="text3956"><tspan
           x="0"
           y="0"
           id="tspan3954">2</tspan></text>
</g><g
       id="g3958"><text
         transform="matrix(1,0,0,-1,429.6,410.7)"
         style="font-variant:normal;font-weight:normal;font-size:12px;font-family:'Liberation Serif';-inkscape-font-specification:LiberationSerif;writing-mode:lr-tb;fill:#000000;fill-opacity:1;fill-rule:nonzero;stroke:none"
         id="text3962"><tspan
           x="0 6 12 15"
           y="0"
           sodipodi:role="line"
           id="tspan3960">30 $</tspan></text>
</g><g
       id="g3964"><text
         transform="matrix(1,0,0,-1,518.3,410.7)"
         style="font-variant:normal;font-weight:normal;font-size:12px;font-family:'Liberation Serif';-inkscape-font-specification:LiberationSerif;writing-mode:lr-tb;fill:#000000;fill-opacity:1;fill-rule:nonzero;stroke:none"
         id="text3968"><tspan
           x="0 6 12 15"
           y="0"
           sodipodi:role="line"
           id="tspan3966">60 $</tspan></text>
</g><g
       id="g3970"><text
         transform="matrix(1,0,0,-1,57.7,392.4)"
         style="font-variant:normal;font-weight:normal;font-size:10px;font-family:'Liberation Sans';-inkscape-font-specification:LiberationSans;writing-mode:lr-tb;fill:#000000;fill-opacity:1;fill-rule:nonzero;stroke:none"
         id="text3974"><tspan
           x="0 6.6900001 8.8900003 14.48 20.07 22.860001 25.65 33.439999 39.029999 41.23 46.82 50.119999 52.32 57.91 60.700001 66.290001 71.879997 74.669998 80.260002 85.849998 91.440002 94.230003 99.82"
           y="0"
           sodipodi:role="line"
           id="tspan3972">Ajout Galerie de photos</tspan></text>
</g><g
       id="g3976"><text
         transform="matrix(1,0,0,-1,368.5,393.7)"
         style="font-variant:normal;font-weight:normal;font-size:12px;font-family:'Liberation Serif';-inkscape-font-specification:LiberationSerif;writing-mode:lr-tb;fill:#000000;fill-opacity:1;fill-rule:nonzero;stroke:none"
         id="text3980"><tspan
           x="0"
           y="0"
           id="tspan3978">2</tspan></text>
</g><g
       id="g3982"><text
         transform="matrix(1,0,0,-1,429.6,393.7)"
         style="font-variant:normal;font-weight:normal;font-size:12px;font-family:'Liberation Serif';-inkscape-font-specification:LiberationSerif;writing-mode:lr-tb;fill:#000000;fill-opacity:1;fill-rule:nonzero;stroke:none"
         id="text3986"><tspan
           x="0 6 12 15"
           y="0"
           sodipodi:role="line"
           id="tspan3984">30 $</tspan></text>
</g><g
       id="g3988"><text
         transform="matrix(1,0,0,-1,518.3,393.7)"
         style="font-variant:normal;font-weight:normal;font-size:12px;font-family:'Liberation Serif';-inkscape-font-specification:LiberationSerif;writing-mode:lr-tb;fill:#000000;fill-opacity:1;fill-rule:nonzero;stroke:none"
         id="text3992"><tspan
           x="0 6 12 15"
           y="0"
           sodipodi:role="line"
           id="tspan3990">60 $</tspan></text>
</g><g
       id="g3994"><text
         transform="matrix(1,0,0,-1,378.5,326)"
         style="font-variant:normal;font-weight:bold;font-size:14px;font-family:'Liberation Serif';-inkscape-font-specification:LiberationSerif-Bold;writing-mode:lr-tb;fill:#000000;fill-opacity:1;fill-rule:nonzero;stroke:none"
         id="text3998"><tspan
           x="0 8.1059999 15.106 19.796 26.796"
           y="0"
           sodipodi:role="line"
           id="tspan3996">Total</tspan></text>
</g><g
       id="g4000"><text
         transform="matrix(1,0,0,-1,507.8,326)"
         style="font-variant:normal;font-weight:bold;font-size:14px;font-family:'Liberation Serif';-inkscape-font-specification:LiberationSerif-Bold;writing-mode:lr-tb;fill:#000000;fill-opacity:1;fill-rule:nonzero;stroke:none"
         id="text4004"><tspan
           x="0 7 14 21 24.5"
           y="0"
           sodipodi:role="line"
           id="tspan4002">120 $</tspan></text>
</g><g
       id="g4006"><g
         id="g4008"
         clip-path="url(#clipPath4012)"><path
           d="M 366.2,606.8 H 328.9 V 636 h 74.5 v -29.2 z"
           style="fill:#ffffff;fill-opacity:1;fill-rule:evenodd;stroke:none"
           id="path4014"
           inkscape:connector-curvature="0" /><g
           id="g4016"><path
             d="M 366.2,606.8 H 328.9 V 636 h 74.5 v -29.2 z"
             style="fill:none;stroke:#3465a4;stroke-width:0.73580003;stroke-linecap:butt;stroke-linejoin:round;stroke-miterlimit:10;stroke-dasharray:none;stroke-opacity:1"
             id="path4018"
             inkscape:connector-curvature="0" /></g><g
           id="g4020"><text
             transform="matrix(1,0,0,-1,337.9,617.4)"
             style="font-variant:normal;font-weight:normal;font-size:12px;font-family:'Liberation Serif';-inkscape-font-specification:LiberationSerif;writing-mode:lr-tb;fill:#000000;fill-opacity:1;fill-rule:nonzero;stroke:none"
             id="text4024"><tspan
               x="0 8.6040001 14.604 17.604 20.604 27.288 32.591999 37.98 41.279999 47.279999 51.276001"
               y="0"
               sodipodi:role="line"
               id="tspan4022">No. Facture</tspan></text>
</g><path
           d="M 439.6,606.8 H 402.4 V 636 h 74.5 v -29.2 z"
           style="fill:#ffffff;fill-opacity:1;fill-rule:evenodd;stroke:none"
           id="path4026"
           inkscape:connector-curvature="0" /><g
           id="g4028"><path
             d="M 439.6,606.8 H 402.4 V 636 h 74.5 v -29.2 z"
             style="fill:none;stroke:#3465a4;stroke-width:0.73580003;stroke-linecap:butt;stroke-linejoin:round;stroke-miterlimit:10;stroke-dasharray:none;stroke-opacity:1"
             id="path4030"
             inkscape:connector-curvature="0" /></g><g
           id="g4032"><text
             transform="matrix(1,0,0,-1,422.6,617.4)"
             style="font-variant:normal;font-weight:normal;font-size:12px;font-family:'Liberation Serif';-inkscape-font-specification:LiberationSerif;writing-mode:lr-tb;fill:#000000;fill-opacity:1;fill-rule:nonzero;stroke:none"
             id="facNo"><tspan
               x="0 6 11.904 15.9 21.9 27.9"
               y="0"
               sodipodi:role="line"
               id="tspan4034">17-006</tspan></text>
</g><path
           d="m 366.1,578.5 h -37.3 v 29.2 h 74.5 v -29.2 z"
           style="fill:#ffffff;fill-opacity:1;fill-rule:evenodd;stroke:none"
           id="path4038"
           inkscape:connector-curvature="0" /><g
           id="g4040"><path
             d="m 366.1,578.5 h -37.3 v 29.2 h 74.5 v -29.2 z"
             style="fill:none;stroke:#3465a4;stroke-width:0.73580003;stroke-linecap:butt;stroke-linejoin:round;stroke-miterlimit:10;stroke-dasharray:none;stroke-opacity:1"
             id="path4042"
             inkscape:connector-curvature="0" /></g><g
           id="g4044"><text
             transform="matrix(1,0,0,-1,354.8,589)"
             style="font-variant:normal;font-weight:normal;font-size:12px;font-family:'Liberation Serif';-inkscape-font-specification:LiberationSerif;writing-mode:lr-tb;fill:#000000;fill-opacity:1;fill-rule:nonzero;stroke:none"
             id="text4048"><tspan
               x="0 8.6040001 13.908 17.292"
               y="0"
               sodipodi:role="line"
               id="tspan4046">Date</tspan></text>
</g><path
           d="m 439.6,578.5 h -37.2 v 29.2 h 74.5 v -29.2 z"
           style="fill:#ffffff;fill-opacity:1;fill-rule:evenodd;stroke:none"
           id="path4050"
           inkscape:connector-curvature="0" /><g
           id="g4052"><path
             d="m 439.6,578.5 h -37.2 v 29.2 h 74.5 v -29.2 z"
             style="fill:none;stroke:#3465a4;stroke-width:0.73580003;stroke-linecap:butt;stroke-linejoin:round;stroke-miterlimit:10;stroke-dasharray:none;stroke-opacity:1"
             id="path4054"
             inkscape:connector-curvature="0" /></g><g
           id="g4056"><text
             transform="matrix(1,0,0,-1,411.6,589)"
             style="font-variant:normal;font-weight:normal;font-size:12px;font-family:'Liberation Serif';-inkscape-font-specification:LiberationSerif;writing-mode:lr-tb;fill:#000000;fill-opacity:1;fill-rule:nonzero;stroke:none"
             id="text4060"><tspan
               x="0 6 11.904 17.988001 23.988001 27.888 33.888 39.972 43.872002 49.872002"
               y="0"
               sodipodi:role="line"
               id="tspan4058">2017-06-28</tspan></text>
</g></g></g></g></svg>